<svg version="1.1" xmlns="http://www.w3.org/2000/svg" xmlns:xlink="http://www.w3.org/1999/xlink" width="800" height="600"><g fill="none" fill-rule="nonzero" stroke="none" stroke-width="1" stroke-linecap="butt" stroke-linejoin="miter" stroke-miterlimit="10" stroke-dasharray="" stroke-dashoffset="0" font-family="none" font-weight="none" font-size="none" text-anchor="none" style="mix-blend-mode: normal"><rect x="0" y="0" width="800" height="600"/></g><g fill="none" fill-rule="nonzero" stroke="#ffffff" stroke-width="16" stroke-linecap="round" stroke-linejoin="miter" stroke-miterlimit="10" stroke-dasharray="" stroke-dashoffset="0" font-family="none" font-weight="none" font-size="none" text-anchor="none" style="mix-blend-mode: normal"><g id="Snowflake"><g><line x1="400" y1="300" x2="400" y2="500"/><polyline points="394.8716,352.5642 400,347.4358 405.1284,352.5642"/><polyline points="385.17699,407.4115 400,392.5885 414.82301,407.4115"/><polyline points="362.95689,468.52155 400,431.47845 437.04311,468.52155"/></g><g><line x1="400" y1="300" x2="226.79492" y2="400"/><polyline points="351.91387,321.84078 358.91939,323.7179 357.04227,330.72342"/><polyline points="299.5674,340.86865 319.81601,346.29425 314.39041,366.54285"/><polyline points="235.5345,352.1805 286.13633,365.73922 272.57761,416.34105"/></g><g><line x1="400" y1="300" x2="226.79492" y2="200"/><polyline points="357.04227,269.27658 358.91939,276.2821 351.91387,278.15922"/><polyline points="314.39041,233.45715 319.81601,253.70575 299.5674,259.13135"/><polyline points="272.57761,183.65895 286.13633,234.26078 235.5345,247.8195"/></g><g><line x1="400" y1="300" x2="400" y2="100"/><polyline points="405.1284,247.4358 400,252.5642 394.8716,247.4358"/><polyline points="414.82301,192.5885 400,207.4115 385.17699,192.5885"/><polyline points="437.04311,131.47845 400,168.52155 362.95689,131.47845"/></g><g><line x1="400" y1="300" x2="573.20508" y2="200"/><polyline points="448.08613,278.15922 441.08061,276.2821 442.95773,269.27658"/><polyline points="500.4326,259.13135 480.18399,253.70575 485.60959,233.45715"/><polyline points="564.4655,247.8195 513.86367,234.26078 527.42239,183.65895"/></g><g><line x1="400" y1="300" x2="573.20508" y2="400"/><polyline points="442.95773,330.72342 441.08061,323.7179 448.08613,321.84078"/><polyline points="485.60959,366.54285 480.18399,346.29425 500.4326,340.86865"/><polyline points="527.42239,416.34105 513.86367,365.73922 564.4655,352.1805"/></g></g></g><g fill="none" fill-rule="nonzero" stroke="none" stroke-width="1" stroke-linecap="butt" stroke-linejoin="miter" stroke-miterlimit="10" stroke-dasharray="" stroke-dashoffset="0" font-family="sans-serif" font-weight="normal" font-size="12" text-anchor="start" style="mix-blend-mode: normal"/></svg>
