<svg version="1.1" xmlns="http://www.w3.org/2000/svg" xmlns:xlink="http://www.w3.org/1999/xlink" width="800" height="600"><g fill="none" fill-rule="nonzero" stroke="none" stroke-width="1" stroke-linecap="butt" stroke-linejoin="miter" stroke-miterlimit="10" stroke-dasharray="" stroke-dashoffset="0" font-family="none" font-weight="none" font-size="none" text-anchor="none" style="mix-blend-mode: normal"><rect x="0" y="0" width="800" height="600"/></g><g fill="none" fill-rule="nonzero" stroke="#ffffff" stroke-width="16" stroke-linecap="round" stroke-linejoin="miter" stroke-miterlimit="10" stroke-dasharray="" stroke-dashoffset="0" font-family="none" font-weight="none" font-size="none" text-anchor="none" style="mix-blend-mode: normal"><g id="Snowflake"><g><line x1="400" y1="300" x2="400" y2="500"/><polyline points="339.36425,363.65121 400,303.01546 460.63575,363.65121"/><polyline points="336.53302,398.40016 400,334.93318 463.46698,398.40016"/><polyline points="379.17437,410.41281 400,389.58719 420.82563,410.41281"/><polyline points="363.94349,451.36159 400,415.30508 436.05651,451.36159"/><polyline points="393.63318,469.85008 400,463.48325 406.36682,469.85008"/></g><g><line x1="400" y1="300" x2="226.79492" y2="400"/><polyline points="314.55856,279.3135 397.38854,301.50773 375.19431,384.3377"/><polyline points="283.04947,294.23606 369.74698,317.46659 346.51645,404.1641"/><polyline points="293.96689,337.17088 322.41522,344.79359 314.79251,373.24193"/><polyline points="250.88876,344.45494 300.14287,357.65254 286.94527,406.90665"/><polyline points="249.7221,379.41121 258.41935,381.74163 256.08893,390.43887"/></g><g><line x1="400" y1="300" x2="226.79492" y2="200"/><polyline points="375.19431,215.6623 397.38854,298.49227 314.55856,320.6865"/><polyline points="346.51645,195.8359 369.74698,282.53341 283.04947,305.76394"/><polyline points="314.79251,226.75807 322.41522,255.20641 293.96689,262.82912"/><polyline points="286.94527,193.09335 300.14287,242.34746 250.88876,255.54506"/><polyline points="256.08893,209.56113 258.41935,218.25837 249.7221,220.58879"/></g><g><line x1="400" y1="300" x2="400" y2="100"/><polyline points="460.63575,236.34879 400,296.98454 339.36425,236.34879"/><polyline points="463.46698,201.59984 400,265.06682 336.53302,201.59984"/><polyline points="420.82563,189.58719 400,210.41281 379.17437,189.58719"/><polyline points="436.05651,148.63841 400,184.69492 363.94349,148.63841"/><polyline points="406.36682,130.14992 400,136.51675 393.63318,130.14992"/></g><g><line x1="400" y1="300" x2="573.20508" y2="200"/><polyline points="485.44144,320.6865 402.61146,298.49227 424.80569,215.6623"/><polyline points="516.95053,305.76394 430.25302,282.53341 453.48355,195.8359"/><polyline points="506.03311,262.82912 477.58478,255.20641 485.20749,226.75807"/><polyline points="549.11124,255.54506 499.85713,242.34746 513.05473,193.09335"/><polyline points="550.2779,220.58879 541.58065,218.25837 543.91107,209.56113"/></g><g><line x1="400" y1="300" x2="573.20508" y2="400"/><polyline points="424.80569,384.3377 402.61146,301.50773 485.44144,279.3135"/><polyline points="453.48355,404.1641 430.25302,317.46659 516.95053,294.23606"/><polyline points="485.20749,373.24193 477.58478,344.79359 506.03311,337.17088"/><polyline points="513.05473,406.90665 499.85713,357.65254 549.11124,344.45494"/><polyline points="543.91107,390.43887 541.58065,381.74163 550.2779,379.41121"/></g></g></g><g fill="none" fill-rule="nonzero" stroke="none" stroke-width="1" stroke-linecap="butt" stroke-linejoin="miter" stroke-miterlimit="10" stroke-dasharray="" stroke-dashoffset="0" font-family="sans-serif" font-weight="normal" font-size="12" text-anchor="start" style="mix-blend-mode: normal"/></svg>
