<svg version="1.1" xmlns="http://www.w3.org/2000/svg" xmlns:xlink="http://www.w3.org/1999/xlink" width="800" height="600"><g fill="none" fill-rule="nonzero" stroke="none" stroke-width="1" stroke-linecap="butt" stroke-linejoin="miter" stroke-miterlimit="10" stroke-dasharray="" stroke-dashoffset="0" font-family="none" font-weight="none" font-size="none" text-anchor="none" style="mix-blend-mode: normal"><rect x="0" y="0" width="800" height="600"/></g><g fill="none" fill-rule="nonzero" stroke="#000000" stroke-width="12" stroke-linecap="round" stroke-linejoin="miter" stroke-miterlimit="10" stroke-dasharray="" stroke-dashoffset="0" font-family="none" font-weight="none" font-size="none" text-anchor="none" style="mix-blend-mode: normal"><g id="Snowflake"><g><line x1="400" y1="300" x2="400" y2="500"/><polyline points="387.79646,346.10177 400,333.89823 412.20354,346.10177"/><polyline points="337.75153,411.12424 400,348.87576 462.24847,411.12424"/><polyline points="350.2882,444.8559 400,395.1441 449.7118,444.8559"/><polyline points="370.85951,474.57025 400,445.42975 429.14049,474.57025"/></g><g><line x1="400" y1="300" x2="226.79492" y2="400"/><polyline points="353.97293,312.48231 370.64327,316.94912 366.17647,333.61946"/><polyline points="272.63935,301.65336 357.67235,324.43788 334.88782,409.47087"/><polyline points="249.69521,329.37627 317.60279,347.57205 299.40701,415.47963"/><polyline points="234.24749,362.04872 274.05414,372.71488 263.38798,412.52153"/></g><g><line x1="400" y1="300" x2="226.79492" y2="200"/><polyline points="366.17647,266.38054 370.64327,283.05088 353.97293,287.51769"/><polyline points="334.88782,190.52913 357.67235,275.56212 272.63935,298.34664"/><polyline points="299.40701,184.52037 317.60279,252.42795 249.69521,270.62373"/><polyline points="263.38798,187.47847 274.05414,227.28512 234.24749,237.95128"/></g><g><line x1="400" y1="300" x2="400" y2="100"/><polyline points="412.20354,253.89823 400,266.10177 387.79646,253.89823"/><polyline points="462.24847,188.87576 400,251.12424 337.75153,188.87576"/><polyline points="449.7118,155.1441 400,204.8559 350.2882,155.1441"/><polyline points="429.14049,125.42975 400,154.57025 370.85951,125.42975"/></g><g><line x1="400" y1="300" x2="573.20508" y2="200"/><polyline points="446.02707,287.51769 429.35673,283.05088 433.82353,266.38054"/><polyline points="527.36065,298.34664 442.32765,275.56212 465.11218,190.52913"/><polyline points="550.30479,270.62373 482.39721,252.42795 500.59299,184.52037"/><polyline points="565.75251,237.95128 525.94586,227.28512 536.61202,187.47847"/></g><g><line x1="400" y1="300" x2="573.20508" y2="400"/><polyline points="433.82353,333.61946 429.35673,316.94912 446.02707,312.48231"/><polyline points="465.11218,409.47087 442.32765,324.43788 527.36065,301.65336"/><polyline points="500.59299,415.47963 482.39721,347.57205 550.30479,329.37627"/><polyline points="536.61202,412.52153 525.94586,372.71488 565.75251,362.04872"/></g></g></g><g fill="none" fill-rule="nonzero" stroke="none" stroke-width="1" stroke-linecap="butt" stroke-linejoin="miter" stroke-miterlimit="10" stroke-dasharray="" stroke-dashoffset="0" font-family="sans-serif" font-weight="normal" font-size="12" text-anchor="start" style="mix-blend-mode: normal"/></svg>
