<svg version="1.1" xmlns="http://www.w3.org/2000/svg" xmlns:xlink="http://www.w3.org/1999/xlink" width="800" height="600"><g fill="none" fill-rule="nonzero" stroke="none" stroke-width="1" stroke-linecap="butt" stroke-linejoin="miter" stroke-miterlimit="10" stroke-dasharray="" stroke-dashoffset="0" font-family="none" font-weight="none" font-size="none" text-anchor="none" style="mix-blend-mode: normal"><rect x="0" y="0" width="800" height="600"/></g><g fill="none" fill-rule="nonzero" stroke="#000000" stroke-width="12" stroke-linecap="round" stroke-linejoin="miter" stroke-miterlimit="10" stroke-dasharray="" stroke-dashoffset="0" font-family="none" font-weight="none" font-size="none" text-anchor="none" style="mix-blend-mode: normal"><g id="Snowflake"><g><line x1="400" y1="300" x2="400" y2="500"/><polyline points="354.69704,372.65148 400,327.34852 445.30296,372.65148"/><polyline points="358.71717,420.64141 400,379.35859 441.28283,420.64141"/><polyline points="387.26246,456.36877 400,443.63123 412.73754,456.36877"/></g><g><line x1="400" y1="300" x2="226.79492" y2="400"/><polyline points="314.43049,297.09223 376.31549,313.67426 359.73345,375.55925"/><polyline points="274.88006,324.56873 331.27345,339.67929 316.16288,396.07268"/><polyline points="258.2119,367.15335 275.61171,371.81561 270.94944,389.21542"/></g><g><line x1="400" y1="300" x2="226.79492" y2="200"/><polyline points="359.73345,224.44075 376.31549,286.32574 314.43049,302.90777"/><polyline points="316.16288,203.92732 331.27345,260.32071 274.88006,275.43127"/><polyline points="270.94944,210.78458 275.61171,228.18439 258.2119,232.84665"/></g><g><line x1="400" y1="300" x2="400" y2="100"/><polyline points="445.30296,227.34852 400,272.65148 354.69704,227.34852"/><polyline points="441.28283,179.35859 400,220.64141 358.71717,179.35859"/><polyline points="412.73754,143.63123 400,156.36877 387.26246,143.63123"/></g><g><line x1="400" y1="300" x2="573.20508" y2="200"/><polyline points="485.56951,302.90777 423.68451,286.32574 440.26655,224.44075"/><polyline points="525.11994,275.43127 468.72655,260.32071 483.83712,203.92732"/><polyline points="541.7881,232.84665 524.38829,228.18439 529.05056,210.78458"/></g><g><line x1="400" y1="300" x2="573.20508" y2="400"/><polyline points="440.26655,375.55925 423.68451,313.67426 485.56951,297.09223"/><polyline points="483.83712,396.07268 468.72655,339.67929 525.11994,324.56873"/><polyline points="529.05056,389.21542 524.38829,371.81561 541.7881,367.15335"/></g></g></g><g fill="none" fill-rule="nonzero" stroke="none" stroke-width="1" stroke-linecap="butt" stroke-linejoin="miter" stroke-miterlimit="10" stroke-dasharray="" stroke-dashoffset="0" font-family="sans-serif" font-weight="normal" font-size="12" text-anchor="start" style="mix-blend-mode: normal"/></svg>
