<svg version="1.1" xmlns="http://www.w3.org/2000/svg" xmlns:xlink="http://www.w3.org/1999/xlink" width="800" height="600"><g fill="none" fill-rule="nonzero" stroke="none" stroke-width="1" stroke-linecap="butt" stroke-linejoin="miter" stroke-miterlimit="10" stroke-dasharray="" stroke-dashoffset="0" font-family="none" font-weight="none" font-size="none" text-anchor="none" style="mix-blend-mode: normal"><rect x="0" y="0" width="800" height="600"/></g><g fill="none" fill-rule="nonzero" stroke="#000000" stroke-width="8" stroke-linecap="round" stroke-linejoin="miter" stroke-miterlimit="10" stroke-dasharray="" stroke-dashoffset="0" font-family="none" font-weight="none" font-size="none" text-anchor="none" style="mix-blend-mode: normal"><g id="Snowflake"><g><line x1="400" y1="300" x2="400" y2="500"/><polyline points="375.67243,345.49712 400,321.16955 424.32757,345.49712"/><polyline points="361.62851,385.85241 400,347.48092 438.37149,385.85241"/><polyline points="366.373,416.8135 400,383.1865 433.627,416.8135"/><polyline points="367.68443,449.49112 400,417.17555 432.31557,449.49112"/><polyline points="396.83573,468.2488 400,465.08453 403.16427,468.2488"/></g><g><line x1="400" y1="300" x2="226.79492" y2="400"/><polyline points="348.43455,301.68027 381.66663,310.58477 372.76212,343.81685"/><polyline points="306.46389,309.69552 358.88031,323.74046 344.83538,376.15689"/><polyline points="282.02305,329.28492 327.95838,341.59325 315.65004,387.52858"/><polyline points="254.37911,346.75946 298.523,358.58777 286.69468,402.73166"/><polyline points="252.71013,381.38406 257.0326,382.54227 255.8744,386.86474"/></g><g><line x1="400" y1="300" x2="226.79492" y2="200"/><polyline points="372.76212,256.18315 381.66663,289.41523 348.43455,298.31973"/><polyline points="344.83538,223.84311 358.88031,276.25954 306.46389,290.30448"/><polyline points="315.65004,212.47142 327.95838,258.40675 282.02305,270.71508"/><polyline points="286.69468,197.26834 298.523,241.41223 254.37911,253.24054"/><polyline points="255.8744,213.13526 257.0326,217.45773 252.71013,218.61594"/></g><g><line x1="400" y1="300" x2="400" y2="100"/><polyline points="424.32757,254.50288 400,278.83045 375.67243,254.50288"/><polyline points="438.37149,214.14759 400,252.51908 361.62851,214.14759"/><polyline points="433.627,183.1865 400,216.8135 366.373,183.1865"/><polyline points="432.31557,150.50888 400,182.82445 367.68443,150.50888"/><polyline points="403.16427,131.7512 400,134.91547 396.83573,131.7512"/></g><g><line x1="400" y1="300" x2="573.20508" y2="200"/><polyline points="451.56545,298.31973 418.33337,289.41523 427.23788,256.18315"/><polyline points="493.53611,290.30448 441.11969,276.25954 455.16462,223.84311"/><polyline points="517.97695,270.71508 472.04162,258.40675 484.34996,212.47142"/><polyline points="545.62089,253.24054 501.477,241.41223 513.30532,197.26834"/><polyline points="547.28987,218.61594 542.9674,217.45773 544.1256,213.13526"/></g><g><line x1="400" y1="300" x2="573.20508" y2="400"/><polyline points="427.23788,343.81685 418.33337,310.58477 451.56545,301.68027"/><polyline points="455.16462,376.15689 441.11969,323.74046 493.53611,309.69552"/><polyline points="484.34996,387.52858 472.04162,341.59325 517.97695,329.28492"/><polyline points="513.30532,402.73166 501.477,358.58777 545.62089,346.75946"/><polyline points="544.1256,386.86474 542.9674,382.54227 547.28987,381.38406"/></g></g></g><g fill="none" fill-rule="nonzero" stroke="none" stroke-width="1" stroke-linecap="butt" stroke-linejoin="miter" stroke-miterlimit="10" stroke-dasharray="" stroke-dashoffset="0" font-family="sans-serif" font-weight="normal" font-size="12" text-anchor="start" style="mix-blend-mode: normal"/></svg>
