<svg version="1.1" xmlns="http://www.w3.org/2000/svg" xmlns:xlink="http://www.w3.org/1999/xlink" width="800" height="600"><g fill="none" fill-rule="nonzero" stroke="none" stroke-width="1" stroke-linecap="butt" stroke-linejoin="miter" stroke-miterlimit="10" stroke-dasharray="" stroke-dashoffset="0" font-family="none" font-weight="none" font-size="none" text-anchor="none" style="mix-blend-mode: normal"><rect x="0" y="0" width="800" height="600"/></g><g fill="none" fill-rule="nonzero" stroke="#ffffff" stroke-width="8" stroke-linecap="round" stroke-linejoin="miter" stroke-miterlimit="10" stroke-dasharray="" stroke-dashoffset="0" font-family="none" font-weight="none" font-size="none" text-anchor="none" style="mix-blend-mode: normal"><g id="Snowflake"><g><line x1="400" y1="300" x2="400" y2="500"/><polyline points="391.35506,354.32247 400,345.67753 408.64494,354.32247"/><polyline points="369.40062,415.29969 400,384.70031 430.59938,415.29969"/><polyline points="335.76773,482.11613 400,417.88387 464.23227,482.11613"/></g><g><line x1="400" y1="300" x2="226.79492" y2="400"/><polyline points="348.63289,319.6745 360.4421,322.83877 357.27783,334.64797"/><polyline points="284.84785,331.15 326.64738,342.35015 315.44723,384.14969"/><polyline points="210.16667,335.43129 297.90958,358.94193 274.39894,446.68484"/></g><g><line x1="400" y1="300" x2="226.79492" y2="200"/><polyline points="357.27783,265.35203 360.4421,277.16123 348.63289,280.3255"/><polyline points="315.44723,215.85031 326.64738,257.64985 284.84785,268.85"/><polyline points="274.39894,153.31516 297.90958,241.05807 210.16667,264.56871"/></g><g><line x1="400" y1="300" x2="400" y2="100"/><polyline points="408.64494,245.67753 400,254.32247 391.35506,245.67753"/><polyline points="430.59938,184.70031 400,215.29969 369.40062,184.70031"/><polyline points="464.23227,117.88387 400,182.11613 335.76773,117.88387"/></g><g><line x1="400" y1="300" x2="573.20508" y2="200"/><polyline points="451.36711,280.3255 439.5579,277.16123 442.72217,265.35203"/><polyline points="515.15215,268.85 473.35262,257.64985 484.55277,215.85031"/><polyline points="589.83333,264.56871 502.09042,241.05807 525.60106,153.31516"/></g><g><line x1="400" y1="300" x2="573.20508" y2="400"/><polyline points="442.72217,334.64797 439.5579,322.83877 451.36711,319.6745"/><polyline points="484.55277,384.14969 473.35262,342.35015 515.15215,331.15"/><polyline points="525.60106,446.68484 502.09042,358.94193 589.83333,335.43129"/></g></g></g><g fill="none" fill-rule="nonzero" stroke="none" stroke-width="1" stroke-linecap="butt" stroke-linejoin="miter" stroke-miterlimit="10" stroke-dasharray="" stroke-dashoffset="0" font-family="sans-serif" font-weight="normal" font-size="12" text-anchor="start" style="mix-blend-mode: normal"/></svg>
