<svg version="1.1" xmlns="http://www.w3.org/2000/svg" xmlns:xlink="http://www.w3.org/1999/xlink" width="800" height="600"><g fill="none" fill-rule="nonzero" stroke="none" stroke-width="1" stroke-linecap="butt" stroke-linejoin="miter" stroke-miterlimit="10" stroke-dasharray="" stroke-dashoffset="0" font-family="none" font-weight="none" font-size="none" text-anchor="none" style="mix-blend-mode: normal"><rect x="0" y="0" width="800" height="600"/></g><g fill="none" fill-rule="nonzero" stroke="#ffffff" stroke-width="8" stroke-linecap="round" stroke-linejoin="miter" stroke-miterlimit="10" stroke-dasharray="" stroke-dashoffset="0" font-family="none" font-weight="none" font-size="none" text-anchor="none" style="mix-blend-mode: normal"><g id="Snowflake"><g><line x1="400" y1="300" x2="400" y2="500"/><polyline points="397.73245,367.80044 400,365.53289 402.26755,367.80044"/><polyline points="348.05813,459.30427 400,407.3624 451.94187,459.30427"/></g><g><line x1="400" y1="300" x2="226.79492" y2="400"/><polyline points="340.14932,331.93646 343.24685,332.76644 342.41687,335.86398"/><polyline points="236.06752,334.66916 307.02143,353.6812 288.00939,424.63511"/></g><g><line x1="400" y1="300" x2="226.79492" y2="200"/><polyline points="342.41687,264.13602 343.24685,267.23356 340.14932,268.06354"/><polyline points="288.00939,175.36489 307.02143,246.3188 236.06752,265.33084"/></g><g><line x1="400" y1="300" x2="400" y2="100"/><polyline points="402.26755,232.19956 400,234.46711 397.73245,232.19956"/><polyline points="451.94187,140.69573 400,192.6376 348.05813,140.69573"/></g><g><line x1="400" y1="300" x2="573.20508" y2="200"/><polyline points="459.85068,268.06354 456.75315,267.23356 457.58313,264.13602"/><polyline points="563.93248,265.33084 492.97857,246.3188 511.99061,175.36489"/></g><g><line x1="400" y1="300" x2="573.20508" y2="400"/><polyline points="457.58313,335.86398 456.75315,332.76644 459.85068,331.93646"/><polyline points="511.99061,424.63511 492.97857,353.6812 563.93248,334.66916"/></g></g></g><g fill="none" fill-rule="nonzero" stroke="none" stroke-width="1" stroke-linecap="butt" stroke-linejoin="miter" stroke-miterlimit="10" stroke-dasharray="" stroke-dashoffset="0" font-family="sans-serif" font-weight="normal" font-size="12" text-anchor="start" style="mix-blend-mode: normal"/></svg>
