<svg version="1.1" xmlns="http://www.w3.org/2000/svg" xmlns:xlink="http://www.w3.org/1999/xlink" width="800" height="600"><g fill="none" fill-rule="nonzero" stroke="none" stroke-width="1" stroke-linecap="butt" stroke-linejoin="miter" stroke-miterlimit="10" stroke-dasharray="" stroke-dashoffset="0" font-family="none" font-weight="none" font-size="none" text-anchor="none" style="mix-blend-mode: normal"><rect x="0" y="0" width="800" height="600"/></g><g fill="none" fill-rule="nonzero" stroke="#ffffff" stroke-width="8" stroke-linecap="round" stroke-linejoin="miter" stroke-miterlimit="10" stroke-dasharray="" stroke-dashoffset="0" font-family="none" font-weight="none" font-size="none" text-anchor="none" style="mix-blend-mode: normal"><g id="Snowflake"><g><line x1="400" y1="300" x2="400" y2="500"/><polyline points="357.34596,354.66035 400,312.00632 442.65404,354.66035"/><polyline points="388.87601,372.22866 400,361.10467 411.12399,372.22866"/><polyline points="359.95723,420.02139 400,379.97861 440.04277,420.02139"/><polyline points="390.62643,438.02012 400,428.64655 409.37357,438.02012"/><polyline points="387.30984,473.01175 400,460.32159 412.69016,473.01175"/></g><g><line x1="400" y1="300" x2="226.79492" y2="400"/><polyline points="331.33573,290.3907 389.60223,306.00316 373.98977,364.26965"/><polyline points="331.88615,326.48067 347.0818,330.55234 343.01014,345.74799"/><polyline points="276.03704,325.33263 330.73649,339.98931 316.07982,394.68875"/><polyline points="275.78428,360.89231 288.58882,364.32327 285.15786,377.12781"/><polyline points="243.82235,375.51587 261.15743,380.16079 256.51251,397.49587"/></g><g><line x1="400" y1="300" x2="226.79492" y2="200"/><polyline points="373.98977,235.73035 389.60223,293.99684 331.33573,309.6093"/><polyline points="343.01014,254.25201 347.0818,269.44766 331.88615,273.51933"/><polyline points="316.07982,205.31125 330.73649,260.01069 276.03704,274.66737"/><polyline points="285.15786,222.87219 288.58882,235.67673 275.78428,239.10769"/><polyline points="256.51251,202.50413 261.15743,219.83921 243.82235,224.48413"/></g><g><line x1="400" y1="300" x2="400" y2="100"/><polyline points="442.65404,245.33965 400,287.99368 357.34596,245.33965"/><polyline points="411.12399,227.77134 400,238.89533 388.87601,227.77134"/><polyline points="440.04277,179.97861 400,220.02139 359.95723,179.97861"/><polyline points="409.37357,161.97988 400,171.35345 390.62643,161.97988"/><polyline points="412.69016,126.98825 400,139.67841 387.30984,126.98825"/></g><g><line x1="400" y1="300" x2="573.20508" y2="200"/><polyline points="468.66427,309.6093 410.39777,293.99684 426.01023,235.73035"/><polyline points="468.11385,273.51933 452.9182,269.44766 456.98986,254.25201"/><polyline points="523.96296,274.66737 469.26351,260.01069 483.92018,205.31125"/><polyline points="524.21572,239.10769 511.41118,235.67673 514.84214,222.87219"/><polyline points="556.17765,224.48413 538.84257,219.83921 543.48749,202.50413"/></g><g><line x1="400" y1="300" x2="573.20508" y2="400"/><polyline points="426.01023,364.26965 410.39777,306.00316 468.66427,290.3907"/><polyline points="456.98986,345.74799 452.9182,330.55234 468.11385,326.48067"/><polyline points="483.92018,394.68875 469.26351,339.98931 523.96296,325.33263"/><polyline points="514.84214,377.12781 511.41118,364.32327 524.21572,360.89231"/><polyline points="543.48749,397.49587 538.84257,380.16079 556.17765,375.51587"/></g></g></g><g fill="none" fill-rule="nonzero" stroke="none" stroke-width="1" stroke-linecap="butt" stroke-linejoin="miter" stroke-miterlimit="10" stroke-dasharray="" stroke-dashoffset="0" font-family="sans-serif" font-weight="normal" font-size="12" text-anchor="start" style="mix-blend-mode: normal"/></svg>
