<svg version="1.1" xmlns="http://www.w3.org/2000/svg" xmlns:xlink="http://www.w3.org/1999/xlink" width="800" height="600"><g fill="none" fill-rule="nonzero" stroke="none" stroke-width="1" stroke-linecap="butt" stroke-linejoin="miter" stroke-miterlimit="10" stroke-dasharray="" stroke-dashoffset="0" font-family="none" font-weight="none" font-size="none" text-anchor="none" style="mix-blend-mode: normal"><rect x="0" y="0" width="800" height="600"/></g><g fill="none" fill-rule="nonzero" stroke="#000000" stroke-width="8" stroke-linecap="round" stroke-linejoin="miter" stroke-miterlimit="10" stroke-dasharray="" stroke-dashoffset="0" font-family="none" font-weight="none" font-size="none" text-anchor="none" style="mix-blend-mode: normal"><g id="Snowflake"><g><line x1="400" y1="300" x2="400" y2="500"/><polyline points="366.70903,366.64548 400,333.35452 433.29097,366.64548"/><polyline points="355.70621,422.14689 400,377.85311 444.29379,422.14689"/><polyline points="380.99256,459.50372 400,440.49628 419.00744,459.50372"/></g><g><line x1="400" y1="300" x2="226.79492" y2="400"/><polyline points="325.63784,304.49192 371.11414,316.67726 358.9288,362.15356"/><polyline points="272.07079,322.7139 332.57723,338.92655 316.36458,399.43299"/><polyline points="252.36201,363.29093 278.32665,370.24814 271.36945,396.21279"/></g><g><line x1="400" y1="300" x2="226.79492" y2="200"/><polyline points="358.9288,237.84644 371.11414,283.32274 325.63784,295.50808"/><polyline points="316.36458,200.56701 332.57723,261.07345 272.07079,277.2861"/><polyline points="271.36945,203.78721 278.32665,229.75186 252.36201,236.70907"/></g><g><line x1="400" y1="300" x2="400" y2="100"/><polyline points="433.29097,233.35452 400,266.64548 366.70903,233.35452"/><polyline points="444.29379,177.85311 400,222.14689 355.70621,177.85311"/><polyline points="419.00744,140.49628 400,159.50372 380.99256,140.49628"/></g><g><line x1="400" y1="300" x2="573.20508" y2="200"/><polyline points="474.36216,295.50808 428.88586,283.32274 441.0712,237.84644"/><polyline points="527.92921,277.2861 467.42277,261.07345 483.63542,200.56701"/><polyline points="547.63799,236.70907 521.67335,229.75186 528.63055,203.78721"/></g><g><line x1="400" y1="300" x2="573.20508" y2="400"/><polyline points="441.0712,362.15356 428.88586,316.67726 474.36216,304.49192"/><polyline points="483.63542,399.43299 467.42277,338.92655 527.92921,322.7139"/><polyline points="528.63055,396.21279 521.67335,370.24814 547.63799,363.29093"/></g></g></g><g fill="none" fill-rule="nonzero" stroke="none" stroke-width="1" stroke-linecap="butt" stroke-linejoin="miter" stroke-miterlimit="10" stroke-dasharray="" stroke-dashoffset="0" font-family="sans-serif" font-weight="normal" font-size="12" text-anchor="start" style="mix-blend-mode: normal"/></svg>
